<svg xmlns="http://www.w3.org/2000/svg" width="1200" height="760" viewBox="0 0 1200 760" fill="none">
  <rect width="1200" height="760" rx="36" fill="#0C1528"/>
  <rect x="64" y="54" width="1072" height="652" rx="28" fill="#151D2B" stroke="#2A3246"/>
  <rect x="64" y="54" width="1072" height="74" rx="28" fill="#1D2332"/>
  <text x="104" y="101" fill="#E7EEFC" font-family="Segoe UI, sans-serif" font-size="30" font-weight="700">Extensions</text>
  <rect x="906" y="74" width="154" height="36" rx="18" fill="#24314D" stroke="#7CE0C3"/>
  <circle cx="942" cy="92" r="12" fill="#7CE0C3"/>
  <text x="966" y="99" fill="#D8FFF5" font-family="Segoe UI, sans-serif" font-size="18" font-weight="700">Developer mode</text>
  <rect x="110" y="174" width="258" height="80" rx="18" fill="#78A7FF"/>
  <text x="156" y="223" fill="#08101F" font-family="Segoe UI, sans-serif" font-size="28" font-weight="800">Load unpacked</text>
  <path d="M402 214H776" stroke="#7CE0C3" stroke-width="8" stroke-linecap="round" stroke-dasharray="20 18"/>
  <rect x="804" y="160" width="240" height="108" rx="22" fill="#10192D" stroke="#2E3D67"/>
  <text x="840" y="207" fill="#E7EEFC" font-family="Segoe UI, sans-serif" font-size="24" font-weight="700">Pick this folder</text>
  <text x="840" y="241" fill="#9DB0D4" font-family="Consolas, monospace" font-size="20">grades-extension</text>
  <rect x="110" y="330" width="936" height="284" rx="24" fill="#10192D" stroke="#2E3D67"/>
  <text x="150" y="390" fill="#E7EEFC" font-family="Segoe UI, sans-serif" font-size="28" font-weight="700">Required manual browser step</text>
  <text x="150" y="440" fill="#9DB0D4" font-family="Segoe UI, sans-serif" font-size="24">1. Open chrome://extensions or edge://extensions</text>
  <text x="150" y="484" fill="#9DB0D4" font-family="Segoe UI, sans-serif" font-size="24">2. Enable Developer mode</text>
  <text x="150" y="528" fill="#9DB0D4" font-family="Segoe UI, sans-serif" font-size="24">3. Click Load unpacked</text>
  <text x="150" y="572" fill="#9DB0D4" font-family="Segoe UI, sans-serif" font-size="24">4. Select the grades-extension folder from this project</text>
</svg>