<svg xmlns="http://www.w3.org/2000/svg" width="1200" height="760" viewBox="0 0 1200 760" fill="none">
  <rect width="1200" height="760" rx="36" fill="#0C1528"/>
  <rect x="82" y="60" width="1036" height="640" rx="28" fill="#161A24" stroke="#2B3142"/>
  <rect x="82" y="60" width="1036" height="82" rx="28" fill="#1E212B"/>
  <text x="122" y="111" fill="#E7EEFC" font-family="Segoe UI, sans-serif" font-size="32" font-weight="700">Lively Wallpaper</text>
  <rect x="850" y="84" width="170" height="34" rx="17" fill="#78A7FF"/>
  <text x="902" y="107" fill="#08101F" font-family="Segoe UI, sans-serif" font-size="18" font-weight="800">Add Wallpaper</text>
  <rect x="142" y="190" width="916" height="408" rx="26" fill="#0F1628" stroke="#2E3D67"/>
  <rect x="202" y="240" width="440" height="214" rx="22" fill="#1B2440" stroke="#6C7EBC"/>
  <text x="232" y="516" fill="#E7EEFC" font-family="Segoe UI, sans-serif" font-size="30" font-weight="700">Choose the wallpaper file</text>
  <rect x="694" y="250" width="298" height="62" rx="14" fill="#10192D" stroke="#7CE0C3"/>
  <text x="722" y="289" fill="#D8FFF5" font-family="Consolas, monospace" font-size="22">sites/wallpaper/</text>
  <rect x="694" y="334" width="298" height="62" rx="14" fill="#10192D" stroke="#78A7FF"/>
  <text x="722" y="373" fill="#E7EEFC" font-family="Consolas, monospace" font-size="22">wallpaper.html</text>
  <path d="M642 281L682 281" stroke="#7CE0C3" stroke-width="8" stroke-linecap="round"/>
  <path d="M642 365L682 365" stroke="#78A7FF" stroke-width="8" stroke-linecap="round"/>
  <text x="694" y="470" fill="#9DB0D4" font-family="Segoe UI, sans-serif" font-size="24">If setup automation did not work, import this file manually and apply it.</text>
</svg>