<svg xmlns="http://www.w3.org/2000/svg" width="1200" height="760" viewBox="0 0 1200 760" fill="none">
  <rect width="1200" height="760" rx="36" fill="#0C1528"/>
  <rect x="70" y="62" width="1060" height="636" rx="28" fill="#141F37" stroke="#2E3D67"/>
  <text x="110" y="128" fill="#E7EEFC" font-family="Segoe UI, sans-serif" font-size="36" font-weight="700">Setup Wizard</text>
  <text x="110" y="168" fill="#9DB0D4" font-family="Segoe UI, sans-serif" font-size="20">Answer the installer prompts to prepare the server, Lively, and startup settings.</text>
  <rect x="110" y="214" width="980" height="94" rx="20" fill="#10192D" stroke="#2E3D67"/>
  <rect x="110" y="332" width="980" height="94" rx="20" fill="#10192D" stroke="#2E3D67"/>
  <rect x="110" y="450" width="980" height="94" rx="20" fill="#10192D" stroke="#2E3D67"/>
  <rect x="110" y="568" width="980" height="94" rx="20" fill="#10192D" stroke="#2E3D67"/>
  <circle cx="156" cy="261" r="18" fill="#78A7FF"/>
  <circle cx="156" cy="379" r="18" fill="#7CE0C3"/>
  <circle cx="156" cy="497" r="18" fill="#FFD57A"/>
  <circle cx="156" cy="615" r="18" fill="#78A7FF"/>
  <text x="196" y="268" fill="#E7EEFC" font-family="Segoe UI, sans-serif" font-size="24" font-weight="600">Install Node.js and Lively if missing</text>
  <text x="196" y="386" fill="#E7EEFC" font-family="Segoe UI, sans-serif" font-size="24" font-weight="600">Choose whether the server should auto-start on login</text>
  <text x="196" y="504" fill="#E7EEFC" font-family="Segoe UI, sans-serif" font-size="24" font-weight="600">Start the server now and sync the dist folder</text>
  <text x="196" y="622" fill="#E7EEFC" font-family="Segoe UI, sans-serif" font-size="24" font-weight="600">Try to import the wallpaper into Lively automatically</text>
  <rect x="935" y="592" width="132" height="46" rx="14" fill="#78A7FF"/>
  <text x="972" y="621" fill="#08101F" font-family="Segoe UI, sans-serif" font-size="20" font-weight="700">Next</text>
</svg>